HIERARCHY
ROOT mixamorig:Hips
{
	OFFSET -0.000000 103.991470 2.076077 
	CHANNELS 6 Xposition Yposition Zposition Xrotation Yrotation Zrotation
	JOINT mixamorig:Spine
	{
		OFFSET 0.000009 10.181587 0.131521 
		CHANNELS 6 Xposition Yposition Zposition Xrotation Yrotation Zrotation
		JOINT mixamorig:Spine1
		{
			OFFSET 0.000000 10.083450 -1.000804 
			CHANNELS 6 Xposition Yposition Zposition Xrotation Yrotation Zrotation
			JOINT mixamorig:Spine2
			{
				OFFSET 0.000000 9.100014 -1.373417 
				CHANNELS 6 Xposition Yposition Zposition Xrotation Yrotation Zrotation
				JOINT mixamorig:Neck
				{
					OFFSET 0.000001 16.671661 -2.516168 
					CHANNELS 6 Xposition Yposition Zposition Xrotation Yrotation Zrotation
					JOINT mixamorig:Head
					{
						OFFSET -0.000000 9.617889 1.685008 
						CHANNELS 6 Xposition Yposition Zposition Xrotation Yrotation Zrotation
						JOINT mixamorig:HeadTop_End
						{
							OFFSET -0.000001 17.815155 2.584985 
							CHANNELS 6 Xposition Yposition Zposition Xrotation Yrotation Zrotation
							End Site
							{
								OFFSET 0.000000 13.794479 0.000000 
							}
						}
						JOINT mixamorig:LeftEye
						{
							OFFSET 3.067561 6.409500 9.283554 
							CHANNELS 6 Xposition Yposition Zposition Xrotation Yrotation Zrotation
							End Site
							{
								OFFSET 0.000000 13.794479 0.000000 
							}
						}
						JOINT mixamorig:RightEye
						{
							OFFSET -3.067550 6.409500 9.283547 
							CHANNELS 6 Xposition Yposition Zposition Xrotation Yrotation Zrotation
							End Site
							{
								OFFSET 0.000000 13.794479 0.000000 
							}
						}
					}
				}
				JOINT mixamorig:LeftShoulder
				{
					OFFSET 4.570446 10.945984 -2.627988 
					CHANNELS 6 Xposition Yposition Zposition Xrotation Yrotation Zrotation
					JOINT mixamorig:LeftArm
					{
						OFFSET 10.592371 -0.524582 -2.232120 
						CHANNELS 6 Xposition Yposition Zposition Xrotation Yrotation Zrotation
						JOINT mixamorig:LeftForeArm
						{
							OFFSET 27.841522 -0.000092 0.000038 
							CHANNELS 6 Xposition Yposition Zposition Xrotation Yrotation Zrotation
							JOINT mixamorig:LeftHand
							{
								OFFSET 28.328835 -0.000015 0.000038 
								CHANNELS 6 Xposition Yposition Zposition Xrotation Yrotation Zrotation
								JOINT mixamorig:LeftHandThumb1
								{
									OFFSET 2.466141 -1.575058 2.682414 
									CHANNELS 6 Xposition Yposition Zposition Xrotation Yrotation Zrotation
									JOINT mixamorig:LeftHandThumb2
									{
										OFFSET 3.229805 -1.864685 1.864681 
										CHANNELS 6 Xposition Yposition Zposition Xrotation Yrotation Zrotation
										JOINT mixamorig:LeftHandThumb3
										{
											OFFSET 2.652565 -1.531494 1.531472 
											CHANNELS 6 Xposition Yposition Zposition Xrotation Yrotation Zrotation
											JOINT mixamorig:LeftHandThumb4
											{
												OFFSET 1.954567 -1.128494 1.128492 
												CHANNELS 6 Xposition Yposition Zposition Xrotation Yrotation Zrotation
												End Site
												{
													OFFSET 0.000000 2.523361 0.000000 
												}
											}
										}
									}
								}
								JOINT mixamorig:LeftHandIndex1
								{
									OFFSET 9.109306 -0.517090 2.260073 
									CHANNELS 6 Xposition Yposition Zposition Xrotation Yrotation Zrotation
									JOINT mixamorig:LeftHandIndex2
									{
										OFFSET 3.676407 0.000000 0.000029 
										CHANNELS 6 Xposition Yposition Zposition Xrotation Yrotation Zrotation
										JOINT mixamorig:LeftHandIndex3
										{
											OFFSET 2.883064 0.000031 -0.000043 
											CHANNELS 6 Xposition Yposition Zposition Xrotation Yrotation Zrotation
											JOINT mixamorig:LeftHandIndex4
											{
												OFFSET 2.392723 0.000031 0.000034 
												CHANNELS 6 Xposition Yposition Zposition Xrotation Yrotation Zrotation
												End Site
												{
													OFFSET 0.000000 2.392715 0.000000 
												}
											}
										}
									}
								}
								JOINT mixamorig:LeftHandMiddle1
								{
									OFFSET 9.533401 -0.000031 0.000014 
									CHANNELS 6 Xposition Yposition Zposition Xrotation Yrotation Zrotation
									JOINT mixamorig:LeftHandMiddle2
									{
										OFFSET 3.698235 0.000000 0.000018 
										CHANNELS 6 Xposition Yposition Zposition Xrotation Yrotation Zrotation
										JOINT mixamorig:LeftHandMiddle3
										{
											OFFSET 2.950928 -0.000046 0.000016 
											CHANNELS 6 Xposition Yposition Zposition Xrotation Yrotation Zrotation
											JOINT mixamorig:LeftHandMiddle4
											{
												OFFSET 2.833900 -0.000046 -0.000010 
												CHANNELS 6 Xposition Yposition Zposition Xrotation Yrotation Zrotation
												End Site
												{
													OFFSET 0.000000 2.833908 0.000000 
												}
											}
										}
									}
								}
								JOINT mixamorig:LeftHandRing1
								{
									OFFSET 9.104530 -0.043945 -1.865085 
									CHANNELS 6 Xposition Yposition Zposition Xrotation Yrotation Zrotation
									JOINT mixamorig:LeftHandRing2
									{
										OFFSET 3.154022 0.000000 0.000010 
										CHANNELS 6 Xposition Yposition Zposition Xrotation Yrotation Zrotation
										JOINT mixamorig:LeftHandRing3
										{
											OFFSET 2.937675 -0.000046 -0.000007 
											CHANNELS 6 Xposition Yposition Zposition Xrotation Yrotation Zrotation
											JOINT mixamorig:LeftHandRing4
											{
												OFFSET 2.647453 -0.000046 0.000000 
												CHANNELS 6 Xposition Yposition Zposition Xrotation Yrotation Zrotation
												End Site
												{
													OFFSET 0.000000 2.647446 0.000000 
												}
											}
										}
									}
								}
								JOINT mixamorig:LeftHandPinky1
								{
									OFFSET 8.077782 -0.488663 -3.806067 
									CHANNELS 6 Xposition Yposition Zposition Xrotation Yrotation Zrotation
									JOINT mixamorig:LeftHandPinky2
									{
										OFFSET 3.600029 -0.000015 -0.000027 
										CHANNELS 6 Xposition Yposition Zposition Xrotation Yrotation Zrotation
										JOINT mixamorig:LeftHandPinky3
										{
											OFFSET 2.114212 0.000031 -0.000003 
											CHANNELS 6 Xposition Yposition Zposition Xrotation Yrotation Zrotation
											JOINT mixamorig:LeftHandPinky4
											{
												OFFSET 1.975685 0.000015 -0.000044 
												CHANNELS 6 Xposition Yposition Zposition Xrotation Yrotation Zrotation
												End Site
												{
													OFFSET 0.000000 1.975677 0.000000 
												}
											}
										}
									}
								}
							}
						}
					}
				}
				JOINT mixamorig:RightShoulder
				{
					OFFSET -4.569970 10.946182 -2.628017 
					CHANNELS 6 Xposition Yposition Zposition Xrotation Yrotation Zrotation
					JOINT mixamorig:RightArm
					{
						OFFSET -10.592844 -0.524811 -2.232099 
						CHANNELS 6 Xposition Yposition Zposition Xrotation Yrotation Zrotation
						JOINT mixamorig:RightForeArm
						{
							OFFSET -27.841522 -0.000031 0.000012 
							CHANNELS 6 Xposition Yposition Zposition Xrotation Yrotation Zrotation
							JOINT mixamorig:RightHand
							{
								OFFSET -28.328835 0.000000 0.000056 
								CHANNELS 6 Xposition Yposition Zposition Xrotation Yrotation Zrotation
								JOINT mixamorig:RightHandPinky1
								{
									OFFSET -8.076675 -0.488449 -3.806010 
									CHANNELS 6 Xposition Yposition Zposition Xrotation Yrotation Zrotation
									JOINT mixamorig:RightHandPinky2
									{
										OFFSET -3.600037 0.000031 0.000051 
										CHANNELS 6 Xposition Yposition Zposition Xrotation Yrotation Zrotation
										JOINT mixamorig:RightHandPinky3
										{
											OFFSET -2.114212 0.000015 0.000015 
											CHANNELS 6 Xposition Yposition Zposition Xrotation Yrotation Zrotation
											JOINT mixamorig:RightHandPinky4
											{
												OFFSET -1.975685 -0.000015 -0.000001 
												CHANNELS 6 Xposition Yposition Zposition Xrotation Yrotation Zrotation
												End Site
												{
													OFFSET 0.000000 1.975677 0.000000 
												}
											}
										}
									}
								}
								JOINT mixamorig:RightHandRing1
								{
									OFFSET -9.103592 -0.043915 -1.865072 
									CHANNELS 6 Xposition Yposition Zposition Xrotation Yrotation Zrotation
									JOINT mixamorig:RightHandRing2
									{
										OFFSET -3.154022 0.000031 0.000049 
										CHANNELS 6 Xposition Yposition Zposition Xrotation Yrotation Zrotation
										JOINT mixamorig:RightHandRing3
										{
											OFFSET -2.937675 -0.000046 -0.000040 
											CHANNELS 6 Xposition Yposition Zposition Xrotation Yrotation Zrotation
											JOINT mixamorig:RightHandRing4
											{
												OFFSET -2.647453 0.000031 -0.000002 
												CHANNELS 6 Xposition Yposition Zposition Xrotation Yrotation Zrotation
												End Site
												{
													OFFSET 0.000000 2.647446 0.000000 
												}
											}
										}
									}
								}
								JOINT mixamorig:RightHandMiddle1
								{
									OFFSET -9.532509 -0.000015 0.000017 
									CHANNELS 6 Xposition Yposition Zposition Xrotation Yrotation Zrotation
									JOINT mixamorig:RightHandMiddle2
									{
										OFFSET -3.698235 0.000015 -0.000022 
										CHANNELS 6 Xposition Yposition Zposition Xrotation Yrotation Zrotation
										JOINT mixamorig:RightHandMiddle3
										{
											OFFSET -2.950920 0.000000 -0.000000 
											CHANNELS 6 Xposition Yposition Zposition Xrotation Yrotation Zrotation
											JOINT mixamorig:RightHandMiddle4
											{
												OFFSET -2.833900 0.000015 0.000054 
												CHANNELS 6 Xposition Yposition Zposition Xrotation Yrotation Zrotation
												End Site
												{
													OFFSET 0.000000 2.833908 0.000000 
												}
											}
										}
									}
								}
								JOINT mixamorig:RightHandIndex1
								{
									OFFSET -9.108284 -0.516785 2.260116 
									CHANNELS 6 Xposition Yposition Zposition Xrotation Yrotation Zrotation
									JOINT mixamorig:RightHandIndex2
									{
										OFFSET -3.676407 0.000015 0.000032 
										CHANNELS 6 Xposition Yposition Zposition Xrotation Yrotation Zrotation
										JOINT mixamorig:RightHandIndex3
										{
											OFFSET -2.883064 -0.000046 0.000040 
											CHANNELS 6 Xposition Yposition Zposition Xrotation Yrotation Zrotation
											JOINT mixamorig:RightHandIndex4
											{
												OFFSET -2.392723 0.000031 0.000028 
												CHANNELS 6 Xposition Yposition Zposition Xrotation Yrotation Zrotation
												End Site
												{
													OFFSET 0.000000 2.392715 0.000000 
												}
											}
										}
									}
								}
								JOINT mixamorig:RightHandThumb1
								{
									OFFSET -2.464806 -1.572708 2.682626 
									CHANNELS 6 Xposition Yposition Zposition Xrotation Yrotation Zrotation
									JOINT mixamorig:RightHandThumb2
									{
										OFFSET -3.229774 -1.864716 1.864719 
										CHANNELS 6 Xposition Yposition Zposition Xrotation Yrotation Zrotation
										JOINT mixamorig:RightHandThumb3
										{
											OFFSET -2.652603 -1.531448 1.531446 
											CHANNELS 6 Xposition Yposition Zposition Xrotation Yrotation Zrotation
											JOINT mixamorig:RightHandThumb4
											{
												OFFSET -1.954582 -1.128464 1.128507 
												CHANNELS 6 Xposition Yposition Zposition Xrotation Yrotation Zrotation
												End Site
												{
													OFFSET 0.000000 2.523361 0.000000 
												}
											}
										}
									}
								}
							}
						}
					}
				}
			}
		}
	}
	JOINT mixamorig:LeftUpLeg
	{
		OFFSET 8.207782 -6.751717 -1.599555 
		CHANNELS 6 Xposition Yposition Zposition Xrotation Yrotation Zrotation
		JOINT mixamorig:LeftLeg
		{
			OFFSET -0.000001 -44.370472 0.284643 
			CHANNELS 6 Xposition Yposition Zposition Xrotation Yrotation Zrotation
			JOINT mixamorig:LeftFoot
			{
				OFFSET 0.000001 -44.427872 -2.982191 
				CHANNELS 6 Xposition Yposition Zposition Xrotation Yrotation Zrotation
				JOINT mixamorig:LeftToeBase
				{
					OFFSET -0.000003 -8.728670 10.710560 
					CHANNELS 6 Xposition Yposition Zposition Xrotation Yrotation Zrotation
					JOINT mixamorig:LeftToe_End
					{
						OFFSET -0.000003 -0.000677 9.278137 
						CHANNELS 6 Xposition Yposition Zposition Xrotation Yrotation Zrotation
						End Site
						{
							OFFSET 0.000000 9.278136 0.000000 
						}
					}
				}
			}
		}
	}
	JOINT mixamorig:RightUpLeg
	{
		OFFSET -8.207796 -6.751663 -1.599559 
		CHANNELS 6 Xposition Yposition Zposition Xrotation Yrotation Zrotation
		JOINT mixamorig:RightLeg
		{
			OFFSET 0.000000 -44.370537 0.286156 
			CHANNELS 6 Xposition Yposition Zposition Xrotation Yrotation Zrotation
			JOINT mixamorig:RightFoot
			{
				OFFSET 0.000001 -44.427731 -2.983789 
				CHANNELS 6 Xposition Yposition Zposition Xrotation Yrotation Zrotation
				JOINT mixamorig:RightToeBase
				{
					OFFSET -0.000002 -8.728668 10.710562 
					CHANNELS 6 Xposition Yposition Zposition Xrotation Yrotation Zrotation
					JOINT mixamorig:RightToe_End
					{
						OFFSET -0.000002 -0.000676 9.278120 
						CHANNELS 6 Xposition Yposition Zposition Xrotation Yrotation Zrotation
						End Site
						{
							OFFSET 0.000000 9.278120 0.000000 
						}
					}
				}
			}
		}
	}
}
MOTION
Frames: 3
Frame Time: 0.033333
4.591374 -4.314785 91.901428 -0.791581 3.052001 1.155458 0.000008 10.181600 0.131535 4.813378 -4.336803 -1.679063 -0.000000 10.083461 -1.000808 2.047732 -3.110716 0.556914 0.000002 9.100008 -1.373418 2.037169 -3.067527 0.660477 -0.000000 16.671661 -2.516183 0.655092 2.686987 -1.325288 0.000000 9.617882 1.685014 -1.684501 6.856030 -1.762701 0.000000 17.815155 2.584986 0.000000 -0.000000 -0.000000 3.067562 6.409500 9.283547 0.000000 -0.000000 -0.000000 -3.067550 6.409500 9.283541 0.000000 -0.000000 -0.000000 4.570443 10.945981 -2.628002 0.324339 -8.915313 -15.185080 10.592370 -0.524578 -2.232106 0.739959 -22.212069 -52.856258 27.841526 -0.000095 0.000030 -0.000105 -27.417177 -0.000226 28.328846 -0.000013 0.000033 5.793147 4.390567 -11.549900 2.466139 -1.575044 2.682413 5.255731 3.572950 10.856598 3.229789 -1.864681 1.864684 3.874523 11.532958 5.485266 2.652574 -1.531474 1.531473 2.025522 -6.339133 21.295401 1.954558 -1.128510 1.128486 -0.000000 -0.000001 -0.000003 9.109300 -0.517085 2.260067 -1.705605 -1.979341 -21.197449 3.676424 -0.000016 0.000028 0.200179 1.516371 -15.038847 2.883072 0.000041 -0.000041 0.200169 1.516374 -15.038837 2.392720 0.000031 0.000035 -0.000000 0.000003 -0.000002 9.533388 -0.000033 0.000010 0.532081 4.719149 -29.342291 3.698229 -0.000015 0.000007 0.125342 1.203851 -11.886984 2.950926 -0.000032 0.000001 0.170595 1.401710 -13.877582 2.833903 -0.000044 -0.000021 0.000002 -0.000003 -0.000001 9.104513 -0.043945 -1.865094 1.854577 6.917374 -31.430079 3.154017 -0.000011 0.000005 0.330163 1.936247 -19.351936 2.937670 -0.000045 0.000002 0.400681 2.126272 -21.341242 2.647452 -0.000046 -0.000012 0.000001 0.000003 0.000000 8.077770 -0.488654 -3.806068 1.505311 6.362621 -35.091003 3.600031 -0.000017 -0.000031 0.275259 1.772254 -17.655165 2.114193 0.000014 -0.000008 0.275263 1.772268 -17.655146 1.975687 0.000013 -0.000046 -0.000003 0.000001 0.000002 -4.569970 10.946202 -2.628036 0.496366 5.545546 14.699310 -10.592847 -0.524797 -2.232104 9.187952 18.827082 55.312618 -27.841526 -0.000023 0.000001 -0.000005 9.477253 -0.000010 -28.328833 0.000001 0.000054 6.669205 11.423543 6.917454 -8.076648 -0.488464 -3.806019 0.860964 -4.990854 26.843416 -3.600028 0.000052 0.000045 0.567189 -2.220859 28.629974 -2.114214 0.000035 0.000026 0.178204 -1.273535 15.930935 -1.975691 -0.000016 -0.000007 0.000001 0.000003 0.000002 -9.103579 -0.043898 -1.865079 0.038145 -3.141804 21.626680 -3.154008 0.000033 0.000032 1.510723 -3.423471 47.612118 -2.937674 -0.000034 -0.000045 0.379119 -1.836706 23.323587 -2.647461 0.000031 -0.000013 0.000000 -0.000004 0.000000 -9.532480 -0.000015 0.000013 -0.851964 -0.406401 18.922804 -3.698228 0.000024 -0.000023 0.845492 -2.669400 35.144505 -2.950916 0.000015 0.000000 0.290441 -1.615678 20.355413 -2.833888 0.000014 0.000061 0.000001 0.000002 0.000001 -9.108264 -0.516765 2.260118 -1.634256 3.857530 16.409458 -3.676414 0.000032 0.000026 0.394798 -1.872649 23.808277 -2.883070 -0.000048 0.000039 0.078373 -0.849226 10.545172 -2.392733 0.000034 0.000031 0.000002 -0.000000 0.000001 -2.464792 -1.572715 2.682623 12.594546 -3.083684 -3.827437 -3.229773 -1.864694 1.864718 4.602760 -21.703531 -8.833780 -2.652601 -1.531428 1.531443 -16.097486 -1.771763 -12.123909 -1.954566 -1.128464 1.128508 -0.000000 -0.000002 -0.000004 8.207783 -6.751709 -1.599548 -11.448953 6.963422 -3.606970 -0.000002 -44.370457 0.284644 26.571068 -7.694393 3.547384 -0.000001 -44.427864 -2.982188 -13.559226 -0.249343 2.300389 -0.000003 -8.728669 10.710563 -6.822917 0.000000 0.000000 -0.000001 -0.000678 9.278133 -0.000000 0.000000 0.000000 -8.207797 -6.751649 -1.599554 -33.903404 -8.171260 -8.685763 0.000000 -44.370537 0.286171 68.677155 -0.015368 0.374180 0.000001 -44.427727 -2.983794 -6.237962 -0.676436 6.935020 -0.000000 -8.728667 10.710562 -7.646728 -0.000002 0.000004 0.000002 -0.000682 9.278128 -0.000002 0.000001 -0.000000 
4.310024 -3.857319 97.419968 -0.542409 3.867468 1.521025 0.000009 10.181581 0.131539 4.893821 -5.385460 -2.008729 0.000001 10.083452 -1.000799 2.101001 -4.140609 1.052483 0.000001 9.100008 -1.373407 2.071104 -4.096144 1.181893 -0.000001 16.671677 -2.516164 0.697500 3.211631 -1.044316 -0.000002 9.617856 1.685002 -1.244167 8.241300 -2.105789 -0.000000 17.815155 2.584984 -0.000000 0.000000 -0.000000 3.067561 6.409515 9.283554 -0.000000 0.000000 -0.000000 -3.067550 6.409500 9.283550 -0.000000 0.000000 -0.000000 4.570440 10.945993 -2.627977 0.331355 -9.158933 -14.813902 10.592367 -0.524581 -2.232116 0.344623 -25.245516 -50.872833 27.841532 -0.000093 0.000038 -0.000117 -34.370476 -0.000241 28.328840 -0.000011 0.000037 4.602713 4.160350 -10.680528 2.466146 -1.575043 2.682421 5.255729 3.572948 10.856595 3.229798 -1.864679 1.864678 2.813930 11.082176 5.857305 2.652559 -1.531504 1.531462 2.033963 -5.850999 21.230463 1.954567 -1.128492 1.128485 -0.000001 0.000001 0.000003 9.109307 -0.517070 2.260079 -1.851769 -2.376608 -20.744890 3.676411 -0.000016 0.000042 0.199938 1.515517 -15.030318 2.883071 0.000029 -0.000049 0.199950 1.515524 -15.030320 2.392732 0.000027 0.000022 -0.000001 0.000001 -0.000000 9.533412 -0.000025 0.000023 0.407391 4.488805 -29.037992 3.698236 -0.000003 0.000022 0.125021 1.202362 -11.871885 2.950920 -0.000047 0.000016 0.170225 1.400212 -13.862397 2.833904 -0.000057 -0.000013 0.000003 0.000000 -0.000001 9.104534 -0.043942 -1.865082 1.775279 6.823990 -30.802319 3.154031 -0.000017 0.000016 0.332038 1.941588 -19.407631 2.937677 -0.000033 -0.000005 0.402760 2.131578 -21.397118 2.647456 -0.000047 -0.000013 -0.000000 -0.000002 0.000002 8.077786 -0.488669 -3.806067 1.473072 6.322679 -34.760422 3.600047 -0.000013 -0.000032 0.275953 1.774482 -17.678087 2.114190 0.000012 -0.000004 0.275966 1.774488 -17.678055 1.975711 0.000015 -0.000039 -0.000001 0.000003 0.000001 -4.569974 10.946212 -2.628001 0.510891 5.177946 14.756716 -10.592844 -0.524799 -2.232093 11.350319 16.672127 56.005356 -27.841520 -0.000032 0.000016 0.000007 9.558861 0.000003 -28.328825 -0.000002 0.000065 5.749072 10.390401 10.527534 -8.076682 -0.488465 -3.806014 0.815242 -4.904595 26.888935 -3.600044 0.000057 0.000059 0.567451 -2.221352 28.636799 -2.114220 0.000013 0.000021 0.178333 -1.273966 15.936418 -1.975684 -0.000019 0.000006 0.000000 -0.000001 -0.000000 -9.103592 -0.043900 -1.865065 0.018990 -3.101482 21.803530 -3.154012 0.000027 0.000061 1.507936 -3.420933 47.565346 -2.937699 -0.000031 -0.000043 0.377623 -1.833235 23.276842 -2.647461 0.000031 0.000007 0.000000 0.000001 0.000000 -9.532493 -0.000010 0.000018 -0.860598 -0.397175 19.006815 -3.698218 0.000004 -0.000038 0.846004 -2.670123 35.155445 -2.950924 -0.000002 -0.000002 0.290746 -1.616501 20.366278 -2.833902 0.000013 0.000047 -0.000001 -0.000002 -0.000002 -9.108283 -0.516786 2.260120 -1.638408 3.795681 16.662088 -3.676392 -0.000002 0.000033 0.396375 -1.876199 23.856180 -2.883054 -0.000045 0.000026 0.079086 -0.853030 10.593044 -2.392730 0.000029 0.000014 0.000001 0.000000 -0.000000 -2.464805 -1.572715 2.682630 12.594548 -3.083684 -3.827436 -3.229780 -1.864697 1.864724 4.747288 -21.775789 -8.754258 -2.652609 -1.531459 1.531444 -16.097801 -1.770337 -12.123979 -1.954575 -1.128461 1.128501 0.000003 -0.000000 0.000000 8.207782 -6.751728 -1.599538 -5.608883 7.369819 -4.416645 0.000001 -44.370457 0.284642 21.935869 -9.174373 4.898468 0.000001 -44.427868 -2.982185 -14.783173 -0.236874 1.388149 -0.000003 -8.728670 10.710563 -6.624124 -0.000000 0.000000 -0.000004 -0.000678 9.278124 0.000000 -0.000000 -0.000000 -8.207796 -6.751674 -1.599549 -39.329521 -7.530803 -9.039363 0.000001 -44.370537 0.286172 61.926758 -1.008460 0.855917 0.000002 -44.427727 -2.983788 -10.513831 -1.016827 7.273025 0.000003 -8.728671 10.710563 -6.918154 -0.000002 0.000001 -0.000001 -0.000678 9.278120 0.000000 0.000000 0.000000 
4.012711 -3.947887 102.917511 0.019177 4.624528 1.707232 0.000010 10.181602 0.131530 4.903489 -6.173033 -2.352639 -0.000000 10.083461 -1.000820 2.191144 -5.097266 1.724548 -0.000000 9.100031 -1.373418 2.118447 -5.044771 1.873394 0.000004 16.671698 -2.516159 0.554337 3.742260 -1.160340 -0.000000 9.617884 1.685013 -1.510703 9.285996 -2.226921 -0.000001 17.815170 2.584989 -0.000000 0.000000 0.000000 3.067561 6.409515 9.283555 -0.000000 0.000000 0.000000 -3.067550 6.409500 9.283545 -0.000000 0.000000 0.000000 4.570445 10.945998 -2.627979 0.342168 -9.422205 -14.380799 10.592375 -0.524548 -2.232118 0.477191 -27.783785 -48.315804 27.841513 -0.000085 0.000042 -0.000190 -41.666332 -0.000282 28.328842 -0.000013 0.000035 4.087028 4.063251 -7.316561 2.466131 -1.575060 2.682410 5.255726 3.572948 10.856598 3.229811 -1.864694 1.864680 2.114798 10.667354 5.846537 2.652560 -1.531479 1.531464 2.041339 -5.480545 21.165529 1.954578 -1.128492 1.128489 -0.000001 0.000001 -0.000001 9.109296 -0.517074 2.260077 -1.870234 -2.364200 -20.911591 3.676411 -0.000002 0.000026 0.199624 1.514332 -15.018189 2.883060 0.000064 -0.000027 0.199606 1.514326 -15.018198 2.392711 0.000045 0.000040 -0.000002 0.000001 0.000002 9.533399 -0.000044 0.000018 0.328857 4.344347 -28.949183 3.698232 -0.000000 0.000018 0.124338 1.199166 -11.839779 2.950925 -0.000043 -0.000001 0.169441 1.397021 -13.830197 2.833905 -0.000029 -0.000007 0.000002 -0.000002 -0.000002 9.104527 -0.043946 -1.865083 1.731618 6.760613 -30.638210 3.154028 -0.000002 0.000007 0.333479 1.945645 -19.449869 2.937672 -0.000046 -0.000002 0.404333 2.135591 -21.439543 2.647450 -0.000043 -0.000002 -0.000000 0.000001 -0.000002 8.077771 -0.488672 -3.806075 1.280634 5.999175 -34.502750 3.600029 0.000001 -0.000026 0.275008 1.771500 -17.647175 2.114211 0.000010 -0.000006 0.275002 1.771485 -17.647173 1.975675 0.000031 -0.000038 -0.000000 0.000001 0.000001 -4.569969 10.946193 -2.628012 0.533113 4.677704 14.579457 -10.592850 -0.524797 -2.232100 13.370605 14.781532 56.799400 -27.841513 -0.000033 -0.000001 -0.000003 10.248255 0.000002 -28.328842 0.000003 0.000059 5.782717 8.132711 13.158589 -8.076674 -0.488468 -3.806010 0.684897 -4.654096 27.145521 -3.600048 0.000031 0.000056 0.565842 -2.218400 28.595486 -2.114215 0.000012 0.000014 0.177321 -1.270435 15.890973 -1.975675 0.000000 -0.000000 -0.000001 -0.000001 -0.000001 -9.103583 -0.043915 -1.865080 -0.025405 -3.006845 22.126642 -3.154019 0.000021 0.000038 1.505055 -3.418301 47.516975 -2.937679 -0.000057 -0.000042 0.376069 -1.829622 23.228329 -2.647439 0.000046 -0.000007 0.000000 0.000001 0.000000 -9.532507 -0.000001 0.000010 -0.868875 -0.429885 19.302078 -3.698241 0.000015 -0.000037 0.847482 -2.672211 35.187057 -2.950908 0.000002 0.000001 0.291637 -1.618893 20.397898 -2.833901 0.000017 0.000042 -0.000000 -0.000001 0.000000 -9.108283 -0.516782 2.260117 -1.718416 3.756807 17.242983 -3.676423 0.000015 0.000024 0.394512 -1.872002 23.799507 -2.883052 -0.000047 0.000034 0.078245 -0.848517 10.536400 -2.392706 0.000028 0.000025 -0.000000 -0.000000 -0.000001 -2.464805 -1.572715 2.682626 12.594543 -3.083684 -3.827437 -3.229766 -1.864718 1.864719 4.992045 -21.587353 -8.578214 -2.652602 -1.531463 1.531454 -16.103172 -1.742952 -12.125055 -1.954584 -1.128461 1.128501 -0.000002 0.000002 0.000001 8.207784 -6.751708 -1.599545 -0.524935 8.078340 -4.400842 0.000003 -44.370476 0.284644 17.639563 -8.079194 5.415993 -0.000001 -44.427879 -2.982185 -16.303545 -3.210761 -0.073746 -0.000004 -8.728672 10.710568 -6.481229 -0.000001 -0.000001 -0.000002 -0.000676 9.278131 0.000000 0.000000 -0.000000 -8.207796 -6.751662 -1.599550 -42.950710 -6.602880 -8.405683 -0.000000 -44.370525 0.286173 51.581017 -2.184274 0.026522 0.000004 -44.427715 -2.983793 -9.906298 -0.930428 6.694230 -0.000004 -8.728668 10.710565 -6.492454 0.000004 0.000001 -0.000005 -0.000674 9.278111 0.000000 -0.000001 0.000000 
